<?xml version="1.0" standalone="no"?>
<!DOCTYPE svg PUBLIC "-//W3C//DTD SVG 20010904//EN"
 "http://www.w3.org/TR/2001/REC-SVG-20010904/DTD/svg10.dtd">
<svg version="1.0" xmlns="http://www.w3.org/2000/svg"
 width="194.000000pt" height="145.000000pt" viewBox="0 0 194.000000 145.000000"
 preserveAspectRatio="xMidYMid meet">
<metadata>
Created by potrace 1.10, written by Peter Selinger 2001-2011
</metadata>
<g transform="translate(0.000000,145.000000) scale(0.050000,-0.050000)"
fill="#000000" stroke="none">
<path d="M2661 2763 c-26 -95 -23 -93 -104 -52 -80 42 -92 26 -37 -51 48 -68
34 -95 -70 -134 -32 -12 -23 -17 40 -25 79 -11 80 -12 78 -96 -2 -101 0 -102
66 -24 l52 62 67 -77 67 -76 -12 60 c-25 137 -24 139 70 150 l89 10 -74 35
c-85 40 -88 51 -31 123 54 69 39 84 -41 43 -71 -37 -101 -27 -101 35 -1 94
-36 104 -59 17z"/>
<path d="M1765 2715 c-102 -49 -62 -215 52 -215 113 0 168 146 79 209 -52 36
-69 37 -131 6z"/>
<path d="M1429 2420 c-33 -10 -87 -46 -118 -79 -67 -70 -65 -71 49 -31 111 39
218 39 233 -1 32 -82 -274 -738 -373 -799 -36 -22 -23 -53 15 -32 122 66 419
411 565 657 l86 145 165 0 c100 0 192 12 235 30 85 35 124 81 44 50 -78 -30
-199 -24 -406 20 -234 49 -417 64 -495 40z"/>
<path d="M2902 2087 c48 -57 32 -249 -28 -353 -257 -437 -1394 -922 -2194
-936 -140 -2 -71 -26 169 -59 153 -21 162 -25 263 -125 58 -57 149 -128 203
-157 l98 -53 -78 149 c-131 250 -35 309 101 62 91 -164 200 -275 273 -275 6 0
11 104 11 230 0 237 13 270 111 270 5 0 9 -113 9 -251 l0 -252 45 15 c114 36
224 178 305 396 59 158 57 164 -38 132 -82 -27 -172 -18 -102 10 22 9 107 46
188 83 129 59 168 67 313 67 182 0 189 5 189 135 0 58 16 87 85 154 337 323
393 603 150 751 -79 48 -109 51 -73 7z"/>
<path d="M1804 2041 c-56 -76 -55 -81 12 -81 81 0 133 -44 119 -99 -16 -60 54
0 97 83 70 135 -136 222 -228 97z"/>
<path d="M2297 1645 c-3 -181 2 -290 13 -302 4 -4 57 26 119 67 l111 74 0 168
0 168 -120 0 -120 0 -3 -175z"/>
<path d="M1870 1680 c-7 -12 -10 -138 -6 -281 l6 -261 47 12 c25 6 82 27 125
46 l78 33 0 236 0 235 -119 0 c-65 0 -124 -9 -131 -20z"/>
<path d="M1440 1220 c0 -246 -7 -237 153 -186 l107 33 0 187 0 186 -130 0
-130 0 0 -220z"/>
<path d="M1020 1069 l0 -171 75 14 c183 34 174 26 181 184 l6 144 -131 0 -131
0 0 -171z"/>
<path d="M2371 900 c-3 -5 -25 -68 -49 -140 -23 -71 -69 -177 -101 -235 -65
-119 -66 -118 36 -67 148 76 401 354 403 442 0 13 -282 13 -289 0z"/>
</g>
</svg>
