<svg width="16" height="16" viewBox="0 0 16 16" fill="none" xmlns="http://www.w3.org/2000/svg" class="text-caption text-darkSlate01"><path d="M8.00284 0.95C4.11415 0.95 0.95 4.11415 0.95 8.00284C0.95 11.8916 4.1142 15.05 8.00284 15.05C11.8915 15.05 15.05 11.8915 15.05 8.00284C15.05 4.1142 11.8916 0.95 8.00284 0.95ZM9.11417 1.85091C10.2726 2.06036 11.3204 2.58962 12.162 3.34112C11.6786 3.60892 11.1803 3.82631 10.675 3.99986C10.2731 3.24355 9.75391 2.51825 9.11417 1.85091ZM5.30836 4.03267C4.80372 3.85608 4.3109 3.62779 3.8414 3.34317C4.6819 2.59329 5.72617 2.06649 6.88047 1.8566C6.23466 2.53173 5.71082 3.26693 5.30836 4.03267ZM7.60037 2.27571V4.46607C7.09137 4.44673 6.58554 4.38055 6.09075 4.26434C6.48 3.56428 6.98132 2.89428 7.60037 2.27571ZM8.40506 2.27568C9.01484 2.8847 9.51133 3.54378 9.89811 4.23183C9.40306 4.35274 8.90402 4.42919 8.40506 4.45936V2.27568ZM1.76319 7.60046C1.85185 6.20001 2.39964 4.92702 3.26107 3.92817C3.80484 4.27438 4.37473 4.55069 4.96328 4.76195C4.57823 5.68504 4.36128 6.6451 4.30016 7.60046H1.76319ZM11.0207 4.72379C11.6092 4.51735 12.1863 4.25632 12.7433 3.93244C13.6013 4.93081 14.1484 6.20224 14.2368 7.60042H11.7054C11.643 6.63137 11.4166 5.65875 11.0207 4.72379ZM10.2647 4.95702C10.6441 5.81804 10.8588 6.7103 10.9223 7.6005H8.40528V5.25354C9.02748 5.21913 9.6508 5.11784 10.2647 4.95702ZM5.08355 7.60037C5.14576 6.7235 5.35626 5.84471 5.72494 4.99544C6.33893 5.15352 6.96769 5.2436 7.60057 5.2655V7.60037H5.08355ZM3.2558 12.0662C2.4008 11.069 1.85692 9.80067 1.76886 8.40506H4.28766C4.31675 9.38793 4.51056 10.3563 4.87088 11.2657C4.31398 11.4735 3.77221 11.7379 3.2558 12.0662ZM5.62637 11.0203C5.28603 10.19 5.10023 9.30679 5.07046 8.40506H7.60045V10.7235C6.93337 10.7472 6.27191 10.8451 5.62637 11.0203ZM8.40503 8.40506H10.935C10.9051 9.32079 10.7134 10.2172 10.3629 11.0588C9.71641 10.881 9.06157 10.7663 8.40503 10.7299V8.40506ZM11.1185 11.293C11.4864 10.3754 11.6887 9.39847 11.7179 8.40506H14.2312C14.1423 9.79549 13.5992 11.0612 12.7486 12.0565C12.2209 11.7492 11.6756 11.4955 11.1185 11.293ZM5.97408 11.7622C6.50678 11.6265 7.05158 11.5446 7.60048 11.5228V13.7996C6.92817 13.2025 6.38332 12.513 5.97408 11.7622ZM8.40517 13.7941V11.5295C8.94358 11.5621 9.48149 11.6505 10.0149 11.7893C9.60813 12.5276 9.06787 13.2055 8.40517 13.7941ZM3.83578 12.6569C4.27466 12.391 4.73369 12.174 5.20378 12.0011C5.60006 12.7716 6.12139 13.4901 6.76363 14.122C5.65227 13.8995 4.64811 13.3839 3.83578 12.6569ZM9.2371 14.1219C9.87427 13.4971 10.3954 12.7901 10.7909 12.0283C11.2576 12.1963 11.7197 12.4046 12.1679 12.6533C11.3547 13.3814 10.3492 13.8991 9.2371 14.1219Z" fill="#393F41" stroke="#393F41" stroke-width="0.1"/></svg>